<?xml version="1.0" encoding="UTF-8"?>
<svg width="567px" height="211px" viewBox="0 0 567 211" version="1.1" xmlns="http://www.w3.org/2000/svg" xmlns:xlink="http://www.w3.org/1999/xlink">
    <!-- Generator: Sketch 51.2 (57519) - http://www.bohemiancoding.com/sketch -->
    <title>Group 2</title>
    <desc>Created with Sketch.</desc>
    <defs></defs>
    <g id="Page-1" stroke="none" stroke-width="1" fill="none" fill-rule="evenodd">
        <g id="Artboard" transform="translate(-14.000000, -40.000000)">
            <g id="Group-2" transform="translate(13.000000, -136.000000)">
                <polygon id="Rectangle" fill="#1ABC9C" transform="translate(284.467233, 284.467233) rotate(45.000000) translate(-284.467233, -284.467233) " points="210.110235 206.579622 484.934467 84 358.59161 355.060998 84 484.934467"></polygon>
                <g id="Group" transform="translate(62.000000, 211.000000)">
                    <path d="M22.594,71.524 L16.588,71.524 L19.591,22.189 L22.594,71.524 Z M2.288,119 L13.728,119 L15.873,82.964 L23.309,82.964 L25.454,119 L36.894,119 L28.886,2.455 L10.296,2.455 L2.288,119 Z M9.009,131.012 L0,121.002 L8.294,0.453 L30.888,0.453 L39.754,10.32 L48.191,131.012 L33.319,131.012 L25.311,122.146 L24.739,131.012 L9.009,131.012 Z M60.693,13.323 C70.274,13.323 73.992,15.468 80.856,23.047 C87.72,30.769 88.721,34.63 88.721,43.925 L88.721,73.383 L80.999,73.383 L88.721,81.82 L88.721,112.136 C88.721,126.436 84.002,131.727 70.131,131.727 C61.98,131.727 56.975,130.44 50.111,123.004 C43.533,115.711 41.531,111.564 41.531,100.696 L41.531,34.487 C41.531,19.186 46.25,13.323 60.693,13.323 Z M65.984,72.954 L65.984,98.98 C65.984,106.416 64.411,108.132 60.55,108.132 C56.975,108.132 55.402,106.13 55.402,97.979 L55.402,37.204 C55.402,28.91 56.975,26.908 60.55,26.908 C64.411,26.908 65.984,28.624 65.984,36.203 L65.984,61.371 L77.567,61.371 L77.567,33.486 C77.567,20.187 73.277,15.325 60.693,15.325 C47.823,15.325 43.676,20.616 43.676,34.487 L43.676,100.696 C43.676,114.567 47.823,119.715 60.693,119.715 C73.277,119.715 77.567,114.853 77.567,101.697 L77.567,72.954 L65.984,72.954 Z M103.797,13.323 C113.378,13.323 117.096,15.468 123.96,23.047 C130.824,30.769 131.825,34.63 131.825,43.925 L131.825,73.383 L124.103,73.383 L131.825,81.82 L131.825,112.136 C131.825,126.436 127.106,131.727 113.235,131.727 C105.084,131.727 100.079,130.44 93.215,123.004 C86.637,115.711 84.635,111.564 84.635,100.696 L84.635,34.487 C84.635,19.186 89.354,13.323 103.797,13.323 Z M109.088,72.954 L109.088,98.98 C109.088,106.416 107.515,108.132 103.654,108.132 C100.079,108.132 98.506,106.13 98.506,97.979 L98.506,37.204 C98.506,28.91 100.079,26.908 103.654,26.908 C107.515,26.908 109.088,28.624 109.088,36.203 L109.088,61.371 L120.671,61.371 L120.671,33.486 C120.671,20.187 116.381,15.325 103.797,15.325 C90.927,15.325 86.78,20.616 86.78,34.487 L86.78,100.696 C86.78,114.567 90.927,119.715 103.797,119.715 C116.381,119.715 120.671,114.853 120.671,101.697 L120.671,72.954 L109.088,72.954 Z M174.929,112.136 C174.929,126.436 170.21,131.727 156.339,131.727 C148.188,131.727 143.183,130.44 136.176,122.861 C129.741,115.711 127.739,111.564 127.739,100.696 L127.739,34.487 C127.739,22.189 130.885,15.897 139.608,14.038 L142.325,2.455 L163.632,2.455 L172.927,12.608 L165.348,21.045 L170.067,26.193 C174.071,30.483 174.929,35.059 174.929,43.925 L174.929,82.678 L168.351,82.678 L174.929,89.971 L174.929,112.136 Z M151.334,13.323 L159.056,4.457 L144.041,4.457 L141.896,13.323 L151.334,13.323 Z M141.61,97.979 L141.61,70.666 L163.775,70.666 L163.775,33.486 C163.775,20.187 159.485,15.325 146.901,15.325 C134.031,15.325 129.884,20.616 129.884,34.487 L129.884,100.696 C129.884,114.567 134.031,119.715 146.901,119.715 C159.485,119.715 163.775,114.853 163.775,101.697 L163.775,81.105 L152.192,81.105 L152.192,98.98 C152.192,106.416 150.619,108.132 146.758,108.132 C143.183,108.132 141.61,106.13 141.61,97.979 Z M141.61,37.204 C141.61,28.91 143.326,26.908 146.901,26.908 C150.619,26.908 152.192,28.624 152.192,36.203 L152.192,61.228 L141.61,61.228 L141.61,37.204 Z M170.843,121.002 L170.843,0.453 L186.859,0.453 L195.868,10.32 L195.868,131.012 L179.852,131.012 L170.843,121.002 Z M172.988,119 L184.714,119 L184.714,2.455 L172.988,2.455 L172.988,119 Z M238.972,112.136 C238.972,126.436 234.253,131.727 220.382,131.727 C212.231,131.727 207.226,130.44 200.219,122.861 C193.784,115.711 191.782,111.564 191.782,100.696 L191.782,34.487 C191.782,22.189 194.928,15.897 203.651,14.038 L206.368,2.455 L227.675,2.455 L236.97,12.608 L229.391,21.045 L234.11,26.193 C238.114,30.483 238.972,35.059 238.972,43.925 L238.972,82.678 L232.394,82.678 L238.972,89.971 L238.972,112.136 Z M215.377,13.323 L223.099,4.457 L208.084,4.457 L205.939,13.323 L215.377,13.323 Z M205.653,97.979 L205.653,70.666 L227.818,70.666 L227.818,33.486 C227.818,20.187 223.528,15.325 210.944,15.325 C198.074,15.325 193.927,20.616 193.927,34.487 L193.927,100.696 C193.927,114.567 198.074,119.715 210.944,119.715 C223.528,119.715 227.818,114.853 227.818,101.697 L227.818,81.105 L216.235,81.105 L216.235,98.98 C216.235,106.416 214.662,108.132 210.801,108.132 C207.226,108.132 205.653,106.13 205.653,97.979 Z M205.653,37.204 C205.653,28.91 207.369,26.908 210.944,26.908 C214.662,26.908 216.235,28.624 216.235,36.203 L216.235,61.228 L205.653,61.228 L205.653,37.204 Z M248.757,16.04 L237.031,16.04 L237.031,119 L248.757,119 L248.757,34.63 C248.757,27.766 256.336,28.195 260.912,29.339 L260.912,15.468 C260.34,15.325 259.625,15.325 258.91,15.325 C252.475,15.325 250.044,19.901 248.9,25.478 L248.757,25.478 L248.757,16.04 Z M250.902,14.038 L251.903,15.039 C253.905,13.752 256.05,13.323 259.339,13.323 C260.197,13.323 261.198,13.323 263.057,13.752 L272.066,23.619 L272.066,41.78 C269.492,41.065 266.918,40.636 265.345,40.636 C262.485,40.636 259.911,41.637 259.911,45.069 L259.911,131.012 L243.895,131.012 L234.886,121.002 L234.886,14.038 L250.902,14.038 Z M281.136,100.267 L281.136,72.096 C281.136,66.519 285.712,65.947 290.86,64.517 L290.86,100.41 C290.86,106.988 288.429,108.275 285.14,108.275 C282.28,108.275 281.136,106.559 281.136,100.267 Z M280.421,119.715 C286.999,119.715 289.573,115.139 290.717,109.562 L290.86,109.562 L290.86,119 L302.443,119 L302.443,33.057 C302.443,19.615 298.296,15.325 285.998,15.325 C273.843,15.325 269.553,19.758 269.553,32.199 L269.553,50.646 L281.279,50.646 L281.279,34.773 C281.279,28.338 282.566,26.908 285.998,26.908 C289.43,26.908 290.86,28.338 290.86,35.631 L290.86,56.223 C283.71,59.655 269.553,56.652 269.553,73.526 L269.553,102.841 C269.553,115.568 272.699,119.715 280.421,119.715 Z M289.716,131.727 C284.854,131.727 281.422,130.726 275.416,124.148 C268.552,116.569 267.408,113.566 267.408,102.841 L267.408,73.526 C267.408,66.09 270.268,61.657 273.843,59.512 L267.408,52.648 L267.408,32.199 C267.408,18.328 272.27,13.323 285.998,13.323 C295.436,13.323 298.582,15.039 305.589,22.761 C312.596,30.34 313.597,34.201 313.597,43.496 L313.597,131.012 L298.582,131.012 L297.295,129.582 C295.436,131.012 293.005,131.727 289.716,131.727 Z M333.249,131.012 L317.519,131.012 L308.367,121.002 L308.367,32.056 L304.077,27.194 L304.077,14.038 L308.367,14.038 L308.367,0.453 L324.24,0.453 L333.249,10.32 L333.249,18.042 L339.541,24.906 L339.541,37.204 L333.249,37.204 L333.249,131.012 Z M328.387,25.192 L328.387,16.04 L322.095,16.04 L322.095,2.455 L310.512,2.455 L310.512,16.04 L306.222,16.04 L306.222,25.192 L310.512,25.192 L310.512,119 L322.095,119 L322.095,25.192 L328.387,25.192 Z M334.311,121.002 L334.311,2.169 L350.327,2.169 L359.336,12.036 L359.336,131.012 L343.32,131.012 L334.311,121.002 Z M336.456,13.466 L348.182,13.466 L348.182,4.171 L336.456,4.171 L336.456,13.466 Z M336.456,119 L348.182,119 L348.182,16.04 L336.456,16.04 L336.456,119 Z M402.011,43.925 L402.011,112.136 C402.011,126.436 397.292,131.727 383.421,131.727 C375.27,131.727 370.551,130.44 363.401,122.718 C356.966,115.854 354.821,112.279 354.821,100.696 L354.821,34.487 C354.821,19.186 359.54,13.323 373.983,13.323 C383.564,13.323 387.282,15.754 394.146,23.333 C401.01,30.912 402.011,33.915 402.011,43.925 Z M390.857,100.696 L390.857,34.487 C390.857,20.616 386.567,15.325 373.983,15.325 C361.113,15.325 356.966,20.616 356.966,34.487 L356.966,100.696 C356.966,114.567 361.113,119.715 373.983,119.715 C386.567,119.715 390.857,114.567 390.857,100.696 Z M379.274,37.204 L379.274,97.979 C379.274,106.13 377.701,108.132 373.84,108.132 C370.265,108.132 368.692,106.13 368.692,97.979 L368.692,37.204 C368.692,28.91 370.265,26.908 373.84,26.908 C377.701,26.908 379.274,28.91 379.274,37.204 Z M422.092,15.325 C415.657,15.325 413.083,19.901 411.939,25.478 L411.796,25.478 L411.796,16.04 L400.07,16.04 L400.07,119 L411.796,119 L411.796,34.773 C411.796,28.052 414.084,26.765 416.944,26.765 C420.376,26.765 421.52,28.767 421.52,35.488 L421.52,119 L433.103,119 L433.103,32.914 C433.103,19.901 429.957,15.325 422.092,15.325 Z M422.092,13.323 C427.955,13.323 430.672,15.182 436.678,21.903 C443.685,29.625 444.257,31.913 444.257,43.353 L444.257,131.012 L429.242,131.012 L422.95,124.005 L422.95,131.012 L406.934,131.012 L397.925,121.002 L397.925,14.038 L413.941,14.038 L415.085,15.182 C416.801,13.895 419.232,13.323 422.092,13.323 Z" id="Accélération" fill="#000000"></path>
                    <path d="M16.588,71.524 L22.594,71.524 L19.591,22.189 L16.588,71.524 Z M13.728,119 L2.288,119 L10.296,2.455 L28.886,2.455 L36.894,119 L25.454,119 L23.309,82.964 L15.873,82.964 L13.728,119 Z M65.984,98.98 L65.984,72.954 L77.567,72.954 L77.567,101.697 C77.567,108.275033 76.3276791,112.922486 73.849,115.6395 C71.3703209,118.356514 66.9850315,119.715 60.693,119.715 C54.3056347,119.715 49.8726791,118.285014 47.394,115.425 C44.9153209,112.564986 43.676,107.655368 43.676,100.696 L43.676,34.487 C43.676,27.4322981 44.9153209,22.4750143 47.394,19.615 C49.8726791,16.7549857 54.3056347,15.325 60.693,15.325 C66.9850315,15.325 71.3703209,16.6834864 73.849,19.4005 C76.3276791,22.1175136 77.567,26.8126333 77.567,33.486 L77.567,61.371 L65.984,61.371 L65.984,36.203 C65.984,32.5803152 65.5788374,30.1255064 64.7685,28.8385 C63.9581626,27.5514936 62.55201,26.908 60.55,26.908 C58.6433238,26.908 57.3086705,27.6229928 56.546,29.053 C55.7833295,30.4830071 55.402,33.19998 55.402,37.204 L55.402,97.979 C55.402,101.887686 55.7833295,104.556993 56.546,105.987 C57.3086705,107.417007 58.6433238,108.132 60.55,108.132 C62.55201,108.132 63.9581626,107.51234 64.7685,106.273 C65.5788374,105.03366 65.984,102.602685 65.984,98.98 Z M109.088,98.98 L109.088,72.954 L120.671,72.954 L120.671,101.697 C120.671,108.275033 119.431679,112.922486 116.953,115.6395 C114.474321,118.356514 110.089031,119.715 103.797,119.715 C97.4096347,119.715 92.9766791,118.285014 90.498,115.425 C88.0193209,112.564986 86.78,107.655368 86.78,100.696 L86.78,34.487 C86.78,27.4322981 88.0193209,22.4750143 90.498,19.615 C92.9766791,16.7549857 97.4096347,15.325 103.797,15.325 C110.089031,15.325 114.474321,16.6834864 116.953,19.4005 C119.431679,22.1175136 120.671,26.8126333 120.671,33.486 L120.671,61.371 L109.088,61.371 L109.088,36.203 C109.088,32.5803152 108.682837,30.1255064 107.8725,28.8385 C107.062163,27.5514936 105.65601,26.908 103.654,26.908 C101.747324,26.908 100.41267,27.6229928 99.65,29.053 C98.8873295,30.4830071 98.506,33.19998 98.506,37.204 L98.506,97.979 C98.506,101.887686 98.8873295,104.556993 99.65,105.987 C100.41267,107.417007 101.747324,108.132 103.654,108.132 C105.65601,108.132 107.062163,107.51234 107.8725,106.273 C108.682837,105.03366 109.088,102.602685 109.088,98.98 Z M159.056,4.457 L151.334,13.323 L141.896,13.323 L144.041,4.457 L159.056,4.457 Z M141.61,70.666 L141.61,97.979 C141.61,101.887686 141.99133,104.556993 142.754,105.987 C143.51667,107.417007 144.851324,108.132 146.758,108.132 C148.76001,108.132 150.166163,107.51234 150.9765,106.273 C151.786837,105.03366 152.192,102.602685 152.192,98.98 L152.192,81.105 L163.775,81.105 L163.775,101.697 C163.775,108.275033 162.535679,112.922486 160.057,115.6395 C157.578321,118.356514 153.193031,119.715 146.901,119.715 C140.513635,119.715 136.080679,118.285014 133.602,115.425 C131.123321,112.564986 129.884,107.655368 129.884,100.696 L129.884,34.487 C129.884,27.4322981 131.123321,22.4750143 133.602,19.615 C136.080679,16.7549857 140.513635,15.325 146.901,15.325 C153.193031,15.325 157.578321,16.6834864 160.057,19.4005 C162.535679,22.1175136 163.775,26.8126333 163.775,33.486 L163.775,70.666 L141.61,70.666 Z M150.905,28.91 C150.14233,27.5753267 148.807676,26.908 146.901,26.908 C144.994324,26.908 143.635837,27.6229928 142.8255,29.053 C142.015163,30.4830071 141.61,33.19998 141.61,37.204 L141.61,61.228 L152.192,61.228 L152.192,36.203 C152.192,32.5803152 151.763004,30.1493395 150.905,28.91 Z M184.714,119 L172.988,119 L172.988,2.455 L184.714,2.455 L184.714,119 Z M223.099,4.457 L215.377,13.323 L205.939,13.323 L208.084,4.457 L223.099,4.457 Z M205.653,70.666 L205.653,97.979 C205.653,101.887686 206.03433,104.556993 206.797,105.987 C207.55967,107.417007 208.894324,108.132 210.801,108.132 C212.80301,108.132 214.209163,107.51234 215.0195,106.273 C215.829837,105.03366 216.235,102.602685 216.235,98.98 L216.235,81.105 L227.818,81.105 L227.818,101.697 C227.818,108.275033 226.578679,112.922486 224.1,115.6395 C221.621321,118.356514 217.236031,119.715 210.944,119.715 C204.556635,119.715 200.123679,118.285014 197.645,115.425 C195.166321,112.564986 193.927,107.655368 193.927,100.696 L193.927,34.487 C193.927,27.4322981 195.166321,22.4750143 197.645,19.615 C200.123679,16.7549857 204.556635,15.325 210.944,15.325 C217.236031,15.325 221.621321,16.6834864 224.1,19.4005 C226.578679,22.1175136 227.818,26.8126333 227.818,33.486 L227.818,70.666 L205.653,70.666 Z M214.948,28.91 C214.18533,27.5753267 212.850676,26.908 210.944,26.908 C209.037324,26.908 207.678837,27.6229928 206.8685,29.053 C206.058163,30.4830071 205.653,33.19998 205.653,37.204 L205.653,61.228 L216.235,61.228 L216.235,36.203 C216.235,32.5803152 215.806004,30.1493395 214.948,28.91 Z M237.031,16.04 L248.757,16.04 L248.757,25.478 L248.9,25.478 C250.330007,18.7092995 253.66664,15.325 258.91,15.325 C259.863338,15.325 260.530665,15.3726662 260.912,15.468 L260.912,29.339 C258.623989,28.3856619 256.026181,28.2664964 253.1185,28.9815 C250.210819,29.6965036 248.757,31.5793181 248.757,34.63 L248.757,119 L237.031,119 L237.031,16.04 Z M281.136,72.096 L281.136,100.267 C281.136,103.317682 281.44583,105.414994 282.0655,106.559 C282.68517,107.703006 283.709993,108.275 285.14,108.275 C286.951342,108.275 288.357495,107.726839 289.3585,106.6305 C290.359505,105.534161 290.86,103.460682 290.86,100.41 L290.86,64.517 C290.573999,64.6123338 289.954338,64.7791655 289.001,65.0175 C288.047662,65.2558345 287.428001,65.4226662 287.142,65.518 C286.855999,65.6133338 286.33167,65.8039986 285.569,66.09 C284.80633,66.3760014 284.282001,66.6143324 283.996,66.805 C283.709999,66.9956676 283.328669,67.2816648 282.852,67.663 C282.375331,68.0443352 282.041668,68.4256648 281.851,68.807 C281.660332,69.1883352 281.493501,69.6649971 281.3505,70.237 C281.207499,70.8090029 281.136,71.4286633 281.136,72.096 Z M290.717,109.562 C289.286993,116.330701 285.855027,119.715 280.421,119.715 C276.512314,119.715 273.723842,118.475679 272.0555,115.997 C270.387158,113.518321 269.553,109.133031 269.553,102.841 L269.553,73.526 C269.553,69.6173138 270.363325,66.5190114 271.984,64.231 C273.604675,61.9429886 275.392157,60.4891698 277.3465,59.8695 C279.300843,59.2498302 281.731819,58.6301698 284.6395,58.0105 C287.547181,57.3908302 289.62066,56.7950029 290.86,56.223 L290.86,35.631 C290.86,32.103649 290.502504,29.7680057 289.7875,28.624 C289.072496,27.4799943 287.809342,26.908 285.998,26.908 C284.186658,26.908 282.947337,27.4323281 282.28,28.481 C281.612663,29.5296719 281.279,31.6269843 281.279,34.773 L281.279,50.646 L269.553,50.646 L269.553,32.199 C269.553,26.0023023 270.768488,21.640846 273.1995,19.1145 C275.630512,16.588154 279.896636,15.325 285.998,15.325 C292.194698,15.325 296.484655,16.6119871 298.868,19.186 C301.251345,21.7600129 302.443,26.3836333 302.443,33.057 L302.443,119 L290.86,119 L290.86,109.562 L290.717,109.562 Z M328.387,16.04 L328.387,25.192 L322.095,25.192 L322.095,119 L310.512,119 L310.512,25.192 L306.222,25.192 L306.222,16.04 L310.512,16.04 L310.512,2.455 L322.095,2.455 L322.095,16.04 L328.387,16.04 Z M348.182,13.466 L336.456,13.466 L336.456,4.171 L348.182,4.171 L348.182,13.466 Z M348.182,119 L336.456,119 L336.456,16.04 L348.182,16.04 L348.182,119 Z M390.857,34.487 L390.857,100.696 C390.857,107.655368 389.617679,112.564986 387.139,115.425 C384.660321,118.285014 380.275031,119.715 373.983,119.715 C367.595635,119.715 363.162679,118.285014 360.684,115.425 C358.205321,112.564986 356.966,107.655368 356.966,100.696 L356.966,34.487 C356.966,27.4322981 358.205321,22.4750143 360.684,19.615 C363.162679,16.7549857 367.595635,15.325 373.983,15.325 C380.179698,15.325 384.541154,16.7788188 387.0675,19.6865 C389.593846,22.5941812 390.857,27.5276319 390.857,34.487 Z M379.274,97.979 L379.274,37.204 C379.274,33.19998 378.868837,30.4830071 378.0585,29.053 C377.248163,27.6229928 375.84201,26.908 373.84,26.908 C371.933324,26.908 370.59867,27.6229928 369.836,29.053 C369.07333,30.4830071 368.692,33.19998 368.692,37.204 L368.692,97.979 C368.692,101.887686 369.07333,104.556993 369.836,105.987 C370.59867,107.417007 371.933324,108.132 373.84,108.132 C375.84201,108.132 377.248163,107.417007 378.0585,105.987 C378.868837,104.556993 379.274,101.887686 379.274,97.979 Z M411.939,25.478 C413.369007,18.7092995 416.753307,15.325 422.092,15.325 C426.09602,15.325 428.932158,16.6358202 430.6005,19.2575 C432.268842,21.8791798 433.103,26.4313009 433.103,32.914 L433.103,119 L421.52,119 L421.52,35.488 C421.52,32.1513166 421.186337,29.8633395 420.519,28.624 C419.851663,27.3846605 418.660009,26.765 416.944,26.765 C413.511983,26.765 411.796,29.4343066 411.796,34.773 L411.796,119 L400.07,119 L400.07,16.04 L411.796,16.04 L411.796,25.478 L411.939,25.478 Z" id="Accélération" fill="#FFFFFF"></path>
                </g>
            </g>
        </g>
    </g>
</svg>